<svg xmlns="http://www.w3.org/2000/svg">
  <symbol id="job" viewBox="0 0 6.64 5.81">
    <path fill="#fff" fill-rule="evenodd" d="M5.249 5.812a1.01 1.01 0 0 0 .979-1.038V1.661H.415v3.113a1.01 1.01 0 0 0 .979 1.038h3.855zM2.491 2.491a.208.208 0 0 0 0 .415h1.661a.208.208 0 0 0 0-.415zM.332 0A.332.332 0 0 0 0 .332v.5a.332.332 0 0 0 .332.332h5.979a.332.332 0 0 0 .332-.332v-.5A.332.332 0 0 0 6.311 0z"/>
  </symbol>
  <symbol id="location" viewBox="0 0 3.74 5.81">
    <path fill="#fff" d="M1.868 0A1.868 1.868 0 0 0 0 1.868c0 1.453 1.868 3.944 1.868 3.944s1.868-2.491 1.868-3.944A1.868 1.868 0 0 0 1.868 0zm0 2.477a.609.609 0 1 1 .609-.609.609.609 0 0 1-.609.609z"/>
  </symbol>
  <symbol id="location-outline" viewBox="0 0 5.07 6.46">
    <g fill="#fff">
      <path d="M2.537 3.69A1.153 1.153 0 1 1 3.69 2.537 1.153 1.153 0 0 1 2.537 3.69zm0-1.845a.692.692 0 1 0 .692.692.692.692 0 0 0-.692-.692z"/>
      <path d="M2.536 6.457L.591 4.162l-.08-.1A2.511 2.511 0 0 1 0 2.54a2.536 2.536 0 0 1 5.073 0 2.51 2.51 0 0 1-.511 1.521s-.069.091-.08.1zM.875 3.78l.066.086 1.595 1.878 1.594-1.88.064-.084a2.053 2.053 0 0 0 .418-1.243 2.075 2.075 0 1 0-4.151 0A2.053 2.053 0 0 0 .875 3.78z"/>
    </g>
  </symbol>
  <symbol id="money" viewBox="0 0 7.26 5.81">
    <g fill="#fff">
      <path d="M6.9 0H.363A.363.363 0 0 0 0 .363v5.086a.363.363 0 0 0 .363.363H6.9a.363.363 0 0 0 .363-.363V.363A.363.363 0 0 0 6.9 0zm-.363 4a1.09 1.09 0 0 0-1.09 1.09H1.816A1.09 1.09 0 0 0 .727 4V1.816a1.09 1.09 0 0 0 1.09-1.09h3.632a1.09 1.09 0 0 0 1.09 1.09z"/>
      <path d="M3.633 1.453a1.453 1.453 0 1 0 1.453 1.453 1.455 1.455 0 0 0-1.453-1.453zm0 2.18a.727.727 0 1 1 .727-.727.727.727 0 0 1-.727.727z"/>
    </g>
  </symbol>
  <symbol id="phone" viewBox="0 0 5.41 5.41">
    <path fill="#fff" d="M5.337 4.5l-.763.757a.552.552 0 0 1-.407.155 3.529 3.529 0 0 1-1.75-.659A6.75 6.75 0 0 1 .374 2.525 2.883 2.883 0 0 1 0 1.255.556.556 0 0 1 .156.842L.919.079a.252.252 0 0 1 .413.069l.614 1.164a.338.338 0 0 1-.069.384l-.277.282a.139.139 0 0 0-.029.08 2.4 2.4 0 0 0 .719 1.067 2.4 2.4 0 0 0 1 .708.159.159 0 0 0 .146-.014l.327-.333a.373.373 0 0 1 .4-.057h.006l1.107.654a.266.266 0 0 1 .063.419z"/>
  </symbol>
  <symbol id="plus" viewBox="0 0 10.32 10.32">
    <path fill="#fff" d="M5.16 0a5.16 5.16 0 1 0 5.16 5.16A5.16 5.16 0 0 0 5.16 0zm2.949 5.528H5.528v2.58h-.737v-2.58h-2.58v-.737h2.58v-2.58h.737v2.58h2.58z"/>
  </symbol>
  <symbol id="search" viewBox="0 0 17.74 17.74">
    <path fill="#3d7791" fill-rule="evenodd" d="M6.162 11.575a1.109 1.109 0 0 0-1.569 0L.325 15.843a1.11 1.11 0 0 0 1.567 1.572l4.27-4.271a1.109 1.109 0 0 0 0-1.569z"/>
    <path fill="#3d7791" fill-rule="evenodd" d="M10.531 13.3a6.1 6.1 0 1 1 6.1-6.1 6.1 6.1 0 0 1-6.1 6.1zM3.326 7.205A7.205 7.205 0 1 0 10.531 0a7.205 7.205 0 0 0-7.205 7.205z"/>
  </symbol>
  <symbol id="arrow" viewBox="0 0 18 15.75">
    <g fill="#3d7791" fill-rule="evenodd">
      <path d="M8.674.331a1.125 1.125 0 0 1 0 1.593L2.718 7.877l5.956 5.954a1.126 1.126 0 0 1-1.593 1.593L.331 8.677a1.125 1.125 0 0 1 0-1.593l6.75-6.75a1.125 1.125 0 0 1 1.593 0z"/>
      <path d="M1.127 7.877a1.125 1.125 0 0 1 1.125-1.125h14.625a1.125 1.125 0 0 1 0 2.25H2.252a1.125 1.125 0 0 1-1.125-1.125z"/>
    </g>
  </symbol>
</svg>